<svg width="33" height="33" viewBox="0 0 33 33" fill="none" xmlns="http://www.w3.org/2000/svg">
<g id="iconoir:instagram" clip-path="url(#clip0_77_1047)">
<path id="Vector" d="M16.0215 25.7198C17.4519 25.7198 18.8237 25.1516 19.8351 24.1401C20.8465 23.1287 21.4147 21.757 21.4147 20.3266C21.4147 18.8963 20.8465 17.5245 19.8351 16.5131C18.8237 15.5017 17.4519 14.9335 16.0215 14.9335C14.5912 14.9335 13.2194 15.5017 12.208 16.5131C11.1966 17.5245 10.6284 18.8963 10.6284 20.3266C10.6284 21.757 11.1966 23.1287 12.208 24.1401C13.2194 25.1516 14.5912 25.7198 16.0215 25.7198Z" stroke="white" stroke-width="1.5" stroke-linecap="round" stroke-linejoin="round"/>
<path id="Vector_2" d="M3.88702 25.7197V14.9335C3.88702 13.1456 4.59728 11.4308 5.86154 10.1666C7.1258 8.90233 8.8405 8.19208 10.6284 8.19208H21.4147C23.2026 8.19208 24.9173 8.90233 26.1816 10.1666C27.4458 11.4308 28.1561 13.1456 28.1561 14.9335V25.7197C28.1561 27.5077 27.4458 29.2224 26.1816 30.4866C24.9173 31.7509 23.2026 32.4611 21.4147 32.4611H10.6284C8.8405 32.4611 7.1258 31.7509 5.86154 30.4866C4.59728 29.2224 3.88702 27.5077 3.88702 25.7197Z" stroke="white" stroke-width="1.5"/>
<path id="Vector_3" d="M23.4371 12.9251L23.451 12.9097" stroke="white" stroke-width="1.5" stroke-linecap="round" stroke-linejoin="round"/>
</g>
<defs>
<clipPath id="clip0_77_1047">
<rect width="32.3588" height="32.3588" fill="white" transform="translate(0.200562)"/>
</clipPath>
</defs>
</svg>
