<svg width="26" height="24" viewBox="0 0 26 24" fill="none" xmlns="http://www.w3.org/2000/svg">
<path d="M18.5341 1H7.46592C3.89455 1 1 3.65381 1 6.92709V17.0729C1 20.3467 3.89507 23 7.46643 23H18.5336C22.1049 23 25 20.3462 25 17.0724V6.92709C25 3.65334 22.1054 1 18.5341 1Z" stroke="white" stroke-miterlimit="10"/>
<path d="M13 17C15.7614 17 18 14.7614 18 12C18 9.23858 15.7614 7 13 7C10.2386 7 8 9.23858 8 12C8 14.7614 10.2386 17 13 17Z" stroke="white" stroke-miterlimit="10"/>
<path d="M20 7C20.5523 7 21 6.55229 21 6C21 5.44772 20.5523 5 20 5C19.4477 5 19 5.44772 19 6C19 6.55229 19.4477 7 20 7Z" fill="white"/>
</svg>
