<svg width="28" height="22" viewBox="0 0 28 22" fill="none" xmlns="http://www.w3.org/2000/svg">
<path d="M27.0976 3.60423L26.8094 3.75574C24.7038 4.86272 22.5919 5.96521 20.4788 7.06837C19.1039 7.7861 17.7285 8.50412 16.3539 9.22385C15.8585 9.52796 15.3349 9.7849 14.7901 9.99122L14.7502 10.0063L14.7083 10.0145C14.2309 10.1071 13.7391 10.0988 13.2652 9.98991C12.8055 9.8843 12.3726 9.68633 11.9936 9.40818C10.6406 8.70508 9.28709 7.99542 7.93892 7.28856C7.30452 6.95594 6.67131 6.62394 6.03989 6.29354C5.96358 6.25403 5.88721 6.21449 5.81077 6.17491C4.27876 5.38173 2.72186 4.57565 1.19035 3.76948L0.90415 3.61882L0.924214 3.29601C0.964955 2.64056 1.2585 2.02688 1.7423 1.57969C2.22578 1.1328 2.86287 0.885569 3.52316 0.886263M27.0976 3.60423L24.4771 1.38626M27.0976 3.60423L27.0756 3.27938C27.0314 2.62654 26.7362 2.01653 26.2525 1.57268C25.7693 1.12922 25.1342 0.884585 24.4764 0.886263M27.0976 3.60423L24.4771 1.38626M3.52316 0.886263C3.52327 0.886264 3.52338 0.886264 3.52349 0.886264L3.5229 1.38626V0.886263H3.52316ZM3.52316 0.886263H24.4764M24.4764 0.886263C24.4762 0.886264 24.4759 0.886265 24.4757 0.886266L24.4771 1.38626M24.4764 0.886263H24.4771V1.38626M1.63875 4.45627L0.90916 4.07915V4.90044V18.5343C0.90916 19.2211 1.18656 19.8781 1.67761 20.3611C2.16839 20.8439 2.83231 21.1137 3.5229 21.1137H24.4771C25.1677 21.1137 25.8316 20.8439 26.3224 20.3611C26.8134 19.8781 27.0908 19.2211 27.0908 18.5343V4.90044V4.0767L26.3601 4.45688C26.0051 4.64158 25.6506 4.82562 25.2963 5.00956C24.1909 5.58342 23.0876 6.15624 21.9768 6.74464C20.9551 7.27146 19.937 7.80166 18.92 8.33132L18.9195 8.33159L18.9195 8.3316C17.9012 8.86192 16.884 9.39169 15.8635 9.91792L15.8452 9.92733L15.8278 9.93821C15.1023 10.3912 14.2335 10.5703 13.3833 10.4416C12.7673 10.2604 12.178 10.0012 11.6302 9.67078L11.6168 9.66272L11.603 9.65551C10.3511 9.00324 9.10016 8.34841 7.8492 7.69357C5.78034 6.61061 3.7115 5.52765 1.63875 4.45627ZM3.5229 0.5H24.4771C25.2814 0.5 26.0512 0.814409 26.6175 1.37151C27.1835 1.92833 27.5 2.68178 27.5 3.46566V18.5343C27.5 19.3182 27.1835 20.0717 26.6175 20.6285C26.0512 21.1856 25.2814 21.5 24.4771 21.5H3.5229C2.71856 21.5 1.94878 21.1856 1.38248 20.6285C0.816459 20.0717 0.5 19.3182 0.5 18.5343V3.46566C0.5 2.68178 0.816459 1.92833 1.38248 1.37151C1.94878 0.814409 2.71856 0.5 3.5229 0.5Z" stroke="white"/>
</svg>
