<svg width="41" height="41" viewBox="0 0 41 41" fill="none" xmlns="http://www.w3.org/2000/svg">
<g id="system-uicons:mail">
<path id="Vector" fill-rule="evenodd" clip-rule="evenodd" d="M7.20764 12.961V28.409C7.20764 29.4332 7.61453 30.4156 8.33879 31.1398C9.06305 31.8641 10.0454 32.271 11.0696 32.271H30.3796C31.4038 32.271 32.3861 31.8641 33.1104 31.1398C33.8347 30.4156 34.2415 29.4332 34.2415 28.409V12.961C34.2415 11.9368 33.8347 10.9545 33.1104 10.2302C32.3861 9.50595 31.4038 9.09906 30.3796 9.09906H11.0696C10.0454 9.09906 9.06305 9.50595 8.33879 10.2302C7.61453 10.9545 7.20764 11.9368 7.20764 12.961Z" stroke="white" stroke-linecap="round" stroke-linejoin="round"/>
<path id="Vector_2" d="M11.0696 14.8921L20.7246 20.685L30.3796 14.8921" stroke="white" stroke-linecap="round" stroke-linejoin="round"/>
</g>
</svg>
