<svg width="30" height="31" viewBox="0 0 30 31" fill="none" xmlns="http://www.w3.org/2000/svg">
<g id="arcticons:maps">
<path id="Vector" d="M14.6534 3.97986H4.67203C4.3416 3.97986 4.02471 4.11112 3.79106 4.34477C3.55741 4.57842 3.42615 4.89531 3.42615 5.22574V25.7828C3.42615 26.1132 3.55741 26.4301 3.79106 26.6637C4.02471 26.8974 4.3416 27.0286 4.67203 27.0286H25.2291C25.5595 27.0286 25.8764 26.8974 26.11 26.6637C26.3437 26.4301 26.4749 26.1132 26.4749 25.7828V5.22574C26.4749 4.89531 26.3437 4.57842 26.11 4.34477C25.8764 4.11112 25.5595 3.97986 25.2291 3.97986H22.1467" stroke="white" stroke-linecap="round" stroke-linejoin="round"/>
<path id="Vector_2" d="M21.6721 16.1633L26.4749 15.4233M3.42615 18.9753L15.7728 17.0722M11.1556 17.7842L8.82579 3.97985M18.4004 2.65112C16.8219 2.65112 15.3081 3.27816 14.192 4.3943C13.0759 5.51043 12.4488 7.02424 12.4488 8.60269C12.4488 13.261 17.0044 18.875 18.1842 20.2517C18.2182 20.2914 18.2604 20.3232 18.3079 20.3449C18.3554 20.3666 18.4071 20.3777 18.4594 20.3774C18.5116 20.3771 18.5631 20.3654 18.6104 20.3432C18.6577 20.3209 18.6995 20.2886 18.733 20.2486C19.893 18.8681 24.352 13.2579 24.352 8.60332C24.352 7.82169 24.1982 7.04771 23.8991 6.32556C23.6 5.60341 23.1617 4.94724 22.609 4.39452C22.0563 3.8418 21.4002 3.40335 20.6781 3.10422C19.956 2.80509 19.182 2.65112 18.4004 2.65112ZM18.4004 10.8272C17.9605 10.8272 17.5306 10.6968 17.1649 10.4524C16.7991 10.2081 16.5141 9.86073 16.3458 9.45437C16.1775 9.048 16.1334 8.60085 16.2192 8.16946C16.305 7.73806 16.5168 7.3418 16.8279 7.03079C17.1389 6.71977 17.5351 6.50796 17.9665 6.42215C18.3979 6.33634 18.8451 6.38038 19.2514 6.5487C19.6578 6.71703 20.0051 7.00207 20.2495 7.36779C20.4939 7.7335 20.6243 8.16347 20.6243 8.60332C20.6243 8.89536 20.5668 9.18455 20.455 9.45437C20.3432 9.72418 20.1794 9.96934 19.9729 10.1758C19.7664 10.3824 19.5212 10.5462 19.2514 10.6579C18.9816 10.7697 18.6924 10.8272 18.4004 10.8272Z" stroke="white" stroke-linecap="round" stroke-linejoin="round"/>
</g>
</svg>
