<svg width="38" height="215" viewBox="0 0 38 215" fill="none" xmlns="http://www.w3.org/2000/svg">
<g id="NUANCE">
<path id="Vector" d="M26.3828 -3.16352e-05L37.1857 -3.21074e-05L37.1857 27.5228L35.2857 27.5228L35.2314 24.8628L2.76856 24.8628L2.71427 27.5228L0.81427 27.5228L0.814269 1.0857L11.3457 1.0857L11.2914 3.20283L8.57713 3.31141C6.07998 7.32856 3.98094 11.5085 2.27998 15.8514L17.3714 15.7428L17.3714 5.59141L19.38 5.59141L19.38 15.7428L35.6657 15.6343C33.8924 11.0019 31.7209 6.53235 29.1514 2.22568L26.4371 2.11712L26.3828 -3.16352e-05Z" fill="#384B2B"/>
<path id="Vector_2" d="M31.7571 39.8648C31.7571 38.2724 31.4314 36.7343 30.78 35.2505C30.1286 33.7667 29.1876 32.3914 27.9571 31.1248L29.5314 29.7133C35.1771 34.1648 38 39.2676 38 45.0219C38 48.3152 37.2581 51.1924 35.7743 53.6533C34.2905 56.0781 32.1914 57.96 29.4771 59.299C26.7629 60.6381 23.5781 61.3076 19.9229 61.3076C16.7743 61.3076 13.7343 60.7105 10.8029 59.5162C7.83524 58.2857 5.46476 56.7295 3.69143 54.8476C2.49714 53.0019 1.59238 51.0295 0.977142 48.9305C0.325713 46.7952 -7.26109e-07 44.6962 -8.16279e-07 42.6333C-9.36506e-07 39.8828 0.597142 37.3676 1.79143 35.0876C2.94952 32.7714 4.57809 30.9438 6.67714 29.6048L12.2686 36.2819C8.93905 38.1638 5.3381 40.4257 1.46571 43.0676C2.11714 44.66 3.23905 46.1076 4.83143 47.4105C6.42381 48.7133 8.32381 49.7448 10.5314 50.5048C12.739 51.2286 15.0371 51.5905 17.4257 51.5905C21.9857 51.5905 25.5143 50.5771 28.0114 48.5505C30.5086 46.4876 31.7571 43.5924 31.7571 39.8648Z" fill="#384B2B"/>
<path id="Vector_3" d="M0.814329 64.5826L2.71433 64.5826L2.76862 67.2426L37.1315 68.654L37.1858 75.2226L6.35147 94.8197L35.2315 92.7569L35.2858 89.554L37.1858 89.554L37.1858 100.628L35.2858 100.628L35.2315 97.9683L2.76862 97.0454L2.71433 99.7054L0.814331 99.7054L0.81433 86.2969L25.2972 70.4997L2.76862 71.9112L2.71433 75.114L0.81433 75.114L0.814329 64.5826Z" fill="#384B2B"/>
<path id="Vector_4" d="M35.2857 102.144L37.1857 102.144L37.1857 118.484L35.2857 118.484L35.2315 115.824L26.3286 118.321L26.3286 127.55L35.2315 129.341L35.2857 126.573L37.1857 126.573L37.1857 138.841L35.2857 138.841L35.2315 136.181L1.2486 124.021L0.325744 117.29L35.2315 104.804L35.2857 102.144ZM24.32 118.918L7.3286 123.695L24.32 127.115L24.32 118.918Z" fill="#384B2B"/>
<path id="Vector_5" d="M0.814329 138.165L2.71433 138.165L2.76862 140.825L37.1858 140.825L37.1858 142.562L32.6258 149.511C34.2543 150.85 35.5572 152.46 36.5343 154.342C37.5115 156.224 38 158.197 38 160.259C38 164.023 36.8058 166.937 34.4172 168.999C32.0286 171.062 28.3191 172.094 23.2886 172.094L2.76862 172.094L2.71433 174.754L0.814331 174.754L0.81433 160.26L2.71433 160.26L2.76862 162.919L21.9315 162.919C25.261 162.919 27.7581 162.232 29.4229 160.857C31.0515 159.481 31.8658 157.599 31.8658 155.211C31.8658 153.184 31.4496 151.393 30.6172 149.837L2.76862 149.837L2.71433 152.497L0.81433 152.497L0.814329 138.165Z" fill="#384B2B"/>
<path id="Vector_6" d="M0.814329 178.137L2.71433 178.137L2.76862 180.797L37.1315 182.209L37.1858 188.777L6.35147 208.374L35.2315 206.312L35.2858 203.109L37.1858 203.109L37.1858 214.183L35.2858 214.183L35.2315 211.523L2.76862 210.6L2.71433 213.26L0.814331 213.26L0.81433 199.852L25.2972 184.054L2.76862 185.466L2.71433 188.669L0.81433 188.669L0.814329 178.137Z" fill="#384B2B"/>
</g>
</svg>
